<svg viewBox="22.027027027027028 17 57.83783783783784 61.02" version="1.1" xmlns="http://www.w3.org/2000/svg" style="max-height: 500px" width="57.83783783783784" height="61.02">
 <g>
  <path d="m32 56s-0.60938 5.6602-2.9688 8.0312c-2.3594 2.3594-8.0312 2.9688-8.0312 2.9688s5.6602 0.60938 8.0312 2.9688 2.9688 8.0312 2.9688 8.0312 0.60938-5.6602 2.9688-8.0312c2.3594-2.3594 8.0312-2.9688 8.0312-2.9688s-5.6602-0.60938-8.0312-2.9688c-2.3594-2.3594-2.9688-8.0312-2.9688-8.0312z"/>
  <path d="m62.93 38.422c-4.8398-4.8398-6.0781-16.422-6.0781-16.422s-1.2383 11.59-6.0781 16.422c-4.8398 4.8398-16.422 6.0781-16.422 6.0781s11.59 1.2383 16.422 6.0781c4.8281 4.8398 6.0781 16.422 6.0781 16.422s1.2383-11.59 6.0781-16.422c4.8398-4.8398 16.422-6.0781 16.422-6.0781s-11.59-1.2383-16.422-6.0781z"/>
  <path d="m34 30.5c0 3.332-5 3.332-5 0s5-3.332 5 0"/>
 </g>
<text fill="#000000" font-family="Arbeit Regular, Helvetica, Arial-Unicode, Arial, Sans-serif" font-weight="bold" font-size="5.0" y="117.5" x="0.0">Created by Tatina Vazest</text><text fill="#000000" font-family="Arbeit Regular, Helvetica, Arial-Unicode, Arial, Sans-serif" font-weight="bold" font-size="5.0" y="122.5" x="0.0">from Noun Project</text></svg>